<?xml version="1.0" standalone="no"?>
<!DOCTYPE svg PUBLIC "-//W3C//DTD SVG 20010904//EN"
 "http://www.w3.org/TR/2001/REC-SVG-20010904/DTD/svg10.dtd">
<svg version="1.0" xmlns="http://www.w3.org/2000/svg"
 width="426.984398pt" height="538.852031pt" viewBox="0 0 426.984398 538.852031"
 preserveAspectRatio="xMidYMid meet">
<metadata>
Created by potrace 1.16, written by Peter Selinger 2001-2019
</metadata>
<g transform="translate(-18.561545,576.055712) scale(0.100000,-0.100000)"
fill="#ffffff" stroke="none">
<path d="M2193 5744 c-114 -41 -224 -200 -360 -524 -159 -380 -337 -832 -433
-1100 -26 -74 -67 -184 -90 -245 -23 -60 -93 -254 -155 -430 -295 -833 -512
-1433 -690 -1910 -300 -802 -279 -737 -279 -850 -1 -158 62 -249 202 -292 90
-28 3768 -28 3853 0 244 81 276 271 115 677 -242 607 -493 1246 -556 1415 -26
72 -89 236 -140 365 -137 353 -406 1058 -460 1205 -58 157 -156 413 -212 550
-22 55 -67 166 -99 246 -306 772 -464 975 -696 893z m124 -496 c15 -19 126
-270 198 -448 34 -85 78 -191 98 -235 107 -241 287 -694 287 -725 0 -60 -42
-38 -180 93 -152 144 -156 143 -261 -106 -121 -289 -116 -290 -321 101 -102
193 -94 192 -268 17 -243 -245 -240 -192 31 480 71 176 148 363 171 415 22 52
68 158 100 235 79 187 107 221 145 173z"/>
</g>
</svg>
